<svg width="292" height="43" xmlns="http://www.w3.org/2000/svg"><g fill="#F01F7A" fill-rule="evenodd"><path d="M78.69 7.49c4.494 0 8.13 1.514 11.111 4.63l.158.165L94 8.409l-.145-.16C90.235 4.218 84.768 2 78.462 2 66.026 2 57 10.621 57 22.5S66.002 43 78.404 43c6.312 0 11.799-2.24 15.451-6.306l.145-.16-4.041-3.875-.158.165c-2.977 3.11-6.715 4.687-11.11 4.687-8.99 0-15.514-6.313-15.514-15.011S69.701 7.49 78.691 7.49M111.029 37.809c-5.901 0-10.022-4.251-10.022-10.337 0-6.053 4.12-10.28 10.022-10.28 5.866 0 9.964 4.227 9.964 10.28 0 6.086-4.098 10.337-9.964 10.337m0-25.809C101.741 12 95 18.507 95 27.472 95 36.469 101.741 43 111.029 43 120.284 43 127 36.47 127 27.472 127 18.507 120.284 12 111.029 12M145.087 37.771c-5.923 0-10.058-4.282-10.058-10.412 0-6.097 4.135-10.355 10.058-10.355 5.887 0 10 4.258 10 10.355 0 6.13-4.113 10.412-10 10.412zm9.942-21.569c-2.479-2.86-6.146-4.427-10.402-4.427-9.2 0-15.627 6.409-15.627 15.584C129 36.568 135.426 43 144.627 43c4.433 0 8.18-1.655 10.631-4.677v4.336H161V0h-5.97v16.202zM180.112 17.022c4.918 0 8.613 3.259 9.266 8.137h-18.533c.647-4.878 4.342-8.137 9.267-8.137m0-5.022C171.355 12 165 18.507 165 27.472 165 36.614 171.65 43 181.175 43c5.02 0 9.125-1.707 11.869-4.935l.123-.146-3.254-3.839-.168.188c-2.113 2.35-4.94 3.54-8.402 3.54-5.638 0-9.729-3.25-10.493-8.305h24.015l.021-.2c.055-.497.114-1.195.114-1.662C195 18.432 188.878 12 180.112 12M222.315 33.618c-1.82 2.742-4.613 4.19-8.074 4.19-6.112 0-10.219-4.153-10.219-10.336 0-6.053 4.202-10.28 10.219-10.28 3.46 0 6.253 1.449 8.074 4.19l.123.186L227 18.679l-.106-.184c-2.38-4.127-6.972-6.495-12.596-6.495C204.854 12 198 18.507 198 27.472 198 36.469 204.854 43 214.297 43c5.604 0 10.194-2.388 12.596-6.551l.107-.186-4.563-2.829-.122.184zM245.029 37.809c-5.901 0-10.022-4.251-10.022-10.337 0-6.053 4.12-10.28 10.022-10.28 5.866 0 9.964 4.227 9.964 10.28 0 6.086-4.098 10.337-9.964 10.337m0-25.809C235.741 12 229 18.507 229 27.472 229 36.469 235.741 43 245.029 43 254.284 43 261 36.47 261 27.472 261 18.507 254.284 12 245.029 12M286.279 12l-10.22 23.368L266.055 12H260l13.067 29.868.057.132h5.752L292 12zM22.512 0C10.108.009.01 9.987 0 22.245v.056l3.829 2.224.052-.035a11.055 11.055 0 0 1 8.17-1.727 10.678 10.678 0 0 1 5.381 2.664l.658.61.371-.81c.36-.783.776-1.52 1.237-2.189.186-.27.39-.541.623-.832l.385-.48-.474-.394a15.738 15.738 0 0 0-7.29-3.387 16.14 16.14 0 0 0-7.538.44c1.821-7.945 8.84-13.483 17.125-13.49 4.675 0 9.07 1.799 12.376 5.064 2.357 2.327 3.98 5.227 4.703 8.396a16.186 16.186 0 0 0-4.688-.707l-.286-.002a16.36 16.36 0 0 0-1.86.137l-.079.011a15.13 15.13 0 0 0-.731.112 15.918 15.918 0 0 0-1.054.227l-.26.066c-.302.08-.607.171-.905.27l-.055.017c-.667.225-1.33.5-1.972.819l-.05.025c-.284.142-.572.299-.88.479l-.068.04a15.253 15.253 0 0 0-3.973 3.387l-.141.17c-.285.353-.51.652-.708.94-.166.24-.332.5-.54.843l-.113.195c-.166.285-.314.557-.44.805l-.029.056a15.741 15.741 0 0 0-.825 1.982l-.032.1a15.28 15.28 0 0 0-.77 5.057l.003.208a21.012 21.012 0 0 0 .039.736c.009.118.02.233.032.349.014.141.031.283.048.422l.01.079.025.191c.033.237.073.47.116.705.453 2.363 1.585 4.725 3.273 6.83l.076.096.078-.093c.673-.792 2.343-3.303 2.484-4.81l.003-.028-.014-.025a10.475 10.475 0 0 1-1.2-4.844c0-5.629 4.447-10.303 10.12-10.642l.372-.014a11.164 11.164 0 0 1 6.506 1.914l.053.035 3.778-2.186.049-.03v-.055c.006-5.941-2.332-11.525-6.582-15.723C34.173 2.308 28.525 0 22.512 0"/></g></svg>