<svg width="56" height="56" xmlns="http://www.w3.org/2000/svg"><g fill="none" fill-rule="evenodd"><circle fill="#F01F7A" cx="28" cy="28" r="28"/><path d="M28.012 6C15.884 6.009 6.009 15.94 6 28.142v.055l3.744 2.214.05-.035c2.364-1.62 5.202-2.23 7.99-1.72a10.372 10.372 0 0 1 5.261 2.653l.643.606.363-.806c.352-.78.759-1.512 1.21-2.178.181-.268.38-.539.608-.828l.377-.477-.463-.393a15.269 15.269 0 0 0-7.13-3.371c-2.46-.45-5.71.617-8.075 1.353 1.78-7.907 9.349-14.336 17.45-14.342 4.572 0 8.87 1.79 12.102 5.04a17.15 17.15 0 0 1 4.597 8.356 15.569 15.569 0 0 0-4.583-.703l-.28-.002a15.72 15.72 0 0 0-1.82.137l-.076.01a14.55 14.55 0 0 0-.715.112c-.104.019-.208.04-.312.061-.246.05-.488.106-.718.165l-.254.065c-.295.08-.594.17-.885.268l-.054.018c-.652.224-1.3.497-1.928.815l-.05.025c-.277.142-.559.297-.86.477l-.066.04a14.988 14.988 0 0 0-3.884 3.37l-.138.17a15.06 15.06 0 0 0-.692.935c-.163.24-.325.499-.528.84l-.112.193c-.162.284-.306.555-.429.803l-.028.055a15.825 15.825 0 0 0-.807 1.973l-.032.1a15.46 15.46 0 0 0-.752 5.032l.003.208a21.285 21.285 0 0 0 .038.733c.008.117.02.231.03.346.014.141.031.283.047.42l.01.079.025.19c.032.236.07.469.114.702.443 2.352 1.549 4.703 3.2 6.8l.074.094.077-.092c.658-.79 2.29-3.289 2.428-4.788l.003-.028-.013-.025a10.576 10.576 0 0 1-1.173-4.821c0-5.603 4.347-10.256 9.893-10.593l.365-.014c2.253-.05 4.456.6 6.362 1.905l.05.035 3.695-2.176.048-.029v-.055c.005-5.914-2.28-11.471-6.436-15.65C39.414 8.297 33.89 6 28.012 6" fill="#FFF"/></g></svg>